<svg width="760" height="180" viewBox="0 0 760 180" fill="none" xmlns="http://www.w3.org/2000/svg">
  <rect width="760" height="180" rx="28" fill="white"/>
  <g transform="translate(42 28)" stroke="#1E2732" stroke-width="5.5" stroke-linecap="round" stroke-linejoin="round">
    <path d="M20 112H140"/>
    <path d="M35 112V52H125V112"/>
    <path d="M74 112V74H99V112"/>
    <path d="M30 52H130L118 24H42L30 52Z"/>
    <path d="M35 52C35 62.5 42.5 70 52 70C61.5 70 69 62.5 69 52"/>
    <path d="M69 52C69 62.5 76.5 70 86 70C95.5 70 103 62.5 103 52"/>
    <path d="M103 52C103 62.5 110.5 70 120 70C129.5 70 137 62.5 137 52"/>
  </g>
  <text x="222" y="104" font-family="Arial, Helvetica, sans-serif" font-size="78" font-weight="700" fill="#1E2732">Ma</text>
  <text x="360" y="104" font-family="Arial, Helvetica, sans-serif" font-size="78" font-weight="700" fill="#45C7D2">Vitrine</text>
  <text x="224" y="142" font-family="Arial, Helvetica, sans-serif" font-size="28" font-weight="600" letter-spacing="0.18em" fill="#1E2732">ONLINE</text>
</svg>
